<?xml version="1.0" standalone="no"?>
<!DOCTYPE svg PUBLIC "-//W3C//DTD SVG 1.1//EN" "http://www.w3.org/Graphics/SVG/1.1/DTD/svg11.dtd">
<svg xmlns="http://www.w3.org/2000/svg" width="246" height="49" viewBox="0 0 246 49" fill="none">
<path d="M31.2851 0.892677C26.4623 -1.01849 17.6433 1.00052 13.4496 2.88772C6.85933 6.02707 1.94661 11.6527 0.544689 19.0038C-2.23519 32.9512 5.7989 46.9944 20.6808 48.3304C34.7061 49.4687 50.5406 40.2004 48.5935 24.5636C47.0777 12.9288 39.1515 0.647041 26.2466 0" fill="#CA702E"/>
<path d="M41.5179 14.2466C41.1644 13.9889 40.8289 13.6714 40.3676 13.6235C39.7385 13.5576 39.1095 13.5037 38.4804 13.4557C38.073 13.4258 37.6716 13.4258 37.2642 13.4078C36.4734 13.3659 35.6825 13.282 34.8917 13.282C33.8433 13.282 32.7948 13.3239 31.7464 13.3838C30.8357 13.4318 29.9251 13.4977 29.0204 13.6115C27.978 13.7433 26.9475 13.923 25.911 14.1088C25.0004 14.2705 24.1137 14.5102 23.3109 14.9835C22.8256 15.265 22.2984 15.5287 22.0348 16.0439C21.7592 16.5711 21.5075 17.1223 21.3458 17.6914C21.172 18.3085 21.1121 18.9556 21.0043 19.5906C20.9264 20.046 20.8186 20.4953 20.7946 20.9506C20.7527 21.7714 20.7407 22.5982 20.7527 23.419C20.7646 24.2517 20.8126 25.0905 20.8605 25.9232C20.9084 26.756 20.9743 27.5888 21.0342 28.4215C21.0582 28.793 21.0882 29.1585 21.1121 29.5299C21.1541 30.165 21.22 30.8 21.2379 31.4351C21.2559 31.9982 21.2439 32.5614 21.202 33.1186C21.178 33.4541 21.1001 33.7896 20.9983 34.1071C20.9264 34.3348 20.7167 34.3528 20.549 34.179C20.513 34.1431 20.4651 34.1071 20.4411 34.0592C20.2254 33.6817 20.0038 33.3103 19.8001 32.9269C19.4586 32.2858 19.2789 31.5908 19.1411 30.8899C19.0033 30.1889 18.9493 29.476 18.8415 28.769C18.7696 28.2897 18.6558 27.8224 18.5959 27.3431C18.476 26.3366 18.0627 25.4979 17.2539 24.8688C16.8764 24.5752 16.3073 24.4614 15.8639 24.8269C15.3007 25.2822 14.9053 25.8573 14.6118 26.5044C14.2283 27.3431 13.8928 28.2119 13.5453 29.0626C13.4315 29.3382 13.3357 29.6198 13.2158 29.8954C13.1679 29.9972 13.072 30.0691 12.9942 30.159C12.9402 30.0631 12.8624 29.9732 12.8324 29.8654C12.5628 28.9128 12.2872 27.9602 12.0356 27.0016C11.9038 26.4804 11.724 25.9592 11.8139 25.402C11.8199 25.3601 11.8139 25.3181 11.8079 25.2762C11.772 24.8149 11.736 24.3476 11.7061 23.8863C11.6821 23.5388 11.6701 23.1973 11.6462 22.8498C11.5982 22.1968 11.5443 21.5437 11.4964 20.8907C11.4784 20.6391 11.5084 20.3875 11.4724 20.1418C11.3826 19.5187 11.2627 18.8957 11.3047 18.2546C11.3107 18.2007 11.2987 18.1468 11.2867 18.0929C11.2328 17.7753 11.1848 17.4578 11.1249 17.1403C11.089 16.9725 11.0411 16.8108 10.9811 16.649C10.9332 16.5232 10.8434 16.4093 10.8074 16.2775C10.6876 15.8821 10.394 15.6904 10.0166 15.6485C9.60319 15.6005 9.18381 15.5766 8.77043 15.5766C8.62065 15.5766 8.44091 15.6245 8.32109 15.7144C7.81185 16.0978 7.32657 16.5172 7.01503 17.0983C6.91917 17.2781 6.93714 17.338 7.14084 17.3859C7.55423 17.4877 7.9796 17.6196 8.33906 17.2181C8.4529 17.0923 8.57272 17.1522 8.59069 17.32C8.62065 17.6136 8.66258 17.9131 8.66258 18.2127C8.66258 20.034 8.68056 21.8553 8.57272 23.6766C8.50082 24.8808 8.56074 26.091 8.7884 27.2772C9.01007 28.4515 9.36355 29.5838 10.0525 30.5783C10.2143 30.812 10.388 31.0397 10.5558 31.2733C10.9752 31.8664 11.5743 32.0881 12.2752 32.16C12.8983 32.2259 13.4076 32.0342 13.8269 31.5968C14.0366 31.3812 14.2164 31.1355 14.3901 30.8839C14.8155 30.2548 15.103 29.5658 15.2348 28.811C15.4146 27.7745 15.7261 26.78 16.1455 25.8214C16.2054 25.6896 16.2953 25.5638 16.3971 25.4559C16.493 25.3541 16.5828 25.384 16.6008 25.5278C16.6308 25.7435 16.6787 25.9652 16.6667 26.1869C16.6008 27.1874 16.505 28.1819 16.4451 29.1824C16.4211 29.5838 16.4211 29.9972 16.451 30.3986C16.493 30.9198 16.5709 31.4411 16.6428 31.9623C16.7746 32.9269 17.0142 33.8555 17.5234 34.7002C17.8889 35.3053 18.3442 35.8146 19.0272 36.0662C19.3028 36.1681 19.5904 36.228 19.884 36.1621C20.2075 36.0902 20.537 36.0123 20.8605 35.9464C21.184 35.8805 21.4716 35.7307 21.6573 35.4671C21.9329 35.0657 22.2325 34.6583 22.4002 34.203C22.6878 33.4241 22.8735 32.6153 22.7657 31.7646C22.7417 31.5849 22.7837 31.3931 22.7837 31.2134C22.7896 30.7401 22.8016 30.2728 22.7837 29.7995C22.7537 29.1285 22.6998 28.4575 22.6578 27.7805C22.6518 27.6547 22.6459 27.5289 22.6399 27.4031C22.5979 26.8878 22.562 26.3726 22.52 25.8514C22.5141 25.7675 22.5141 25.6836 22.5081 25.5997C22.4661 24.9587 22.4002 24.3176 22.3763 23.6706C22.3523 23.1134 22.3643 22.5502 22.3703 21.9871C22.3763 21.358 22.3763 20.7349 22.4122 20.1059C22.4362 19.6745 22.5141 19.2431 22.568 18.8118C22.6219 18.4104 22.6758 18.009 22.7237 17.6076C22.7837 17.1163 22.8915 16.643 23.1371 16.2116C23.2629 15.984 23.4367 15.8042 23.6823 15.7204C23.892 15.6485 24.1017 15.5646 24.3174 15.5346C24.8865 15.4628 25.4557 15.4088 26.0248 15.3549C26.4622 15.313 26.9055 15.271 27.3429 15.2411C28.2296 15.1872 29.1163 15.1332 30.003 15.0913C30.9196 15.0494 31.8362 15.0194 32.7589 14.9895C33.0704 14.9775 33.1243 15.0613 33.0524 15.3669C33.0404 15.4088 33.0225 15.4448 33.0105 15.4807C32.8308 15.9241 32.6331 16.3554 32.4713 16.8048C32.1418 17.7154 31.9261 18.662 31.8842 19.6326C31.8422 20.5672 31.8542 21.5078 31.8422 22.4424C31.8422 22.712 31.8602 22.9816 31.8482 23.2452C31.8123 23.9881 31.7583 24.731 31.7284 25.4799C31.7104 25.9232 31.7224 26.3666 31.7224 26.8039C31.7104 26.8039 31.7044 26.8039 31.6924 26.8039C31.7284 27.5528 31.7524 28.3077 31.8063 29.0566C31.8302 29.434 31.9261 29.7995 32.1418 30.123C32.3515 30.4346 32.6331 30.6502 33.0105 30.6862C33.37 30.7221 33.7354 30.7221 34.1009 30.7401C34.2866 30.7461 34.4184 30.6622 34.5023 30.4945C34.5742 30.3507 34.6281 30.1889 34.724 30.0691C34.9037 29.8414 34.9396 29.5838 34.9157 29.3082C34.9037 29.1884 34.8797 29.0686 34.8797 28.9548C34.8797 28.8889 34.8977 28.799 34.9396 28.763C35.0654 28.6492 35.0774 28.5114 35.0954 28.3616C35.1134 28.134 35.1613 27.9063 35.1853 27.6727C35.2092 27.445 35.2272 27.2113 35.2272 26.9777C35.2332 26.8039 35.2032 26.6302 35.2032 26.4624C35.1973 25.9412 35.2152 25.42 35.1973 24.9048C35.1853 24.4255 35.1493 23.9522 35.1194 23.4729C35.0894 23.0715 35.0355 22.6641 35.0235 22.2627C34.9995 21.37 34.9936 20.4713 34.9816 19.5786C34.9756 19.2431 34.9576 18.9076 34.9756 18.5781C35.0175 17.8772 35.1134 17.1762 34.9816 16.4693C34.9277 16.1877 34.9157 15.9001 34.8378 15.6305C34.7359 15.277 34.9097 14.9176 35.2751 14.8517C35.401 14.8277 35.5387 14.8037 35.6646 14.8097C36.3236 14.8277 36.9886 14.8576 37.6476 14.8876C38.4564 14.9176 39.2712 14.9655 40.08 14.9775C40.4455 14.9835 40.8169 14.9535 41.1704 14.8157C41.3861 14.7318 41.4759 14.5581 41.5658 14.3784C41.5838 14.3784 41.5538 14.2765 41.5179 14.2466Z" fill="white"/>
<path d="M35.7545 36.0243C35.2872 35.8984 34.8079 35.8206 34.3226 35.8505C33.8792 35.8805 33.4299 35.8984 32.9866 35.9404C32.1418 36.0123 31.3031 36.1021 30.4583 36.18C30.2906 36.174 30.1288 36.174 29.9611 36.168C29.8592 36.1441 29.7514 36.1201 29.6495 36.0961C29.4099 35.9943 29.2122 35.8505 29.0983 35.5929C28.8946 35.1316 28.7808 34.6463 28.7269 34.143C28.673 33.6518 28.625 33.1605 28.5711 32.6692C28.5112 32.136 28.4273 31.6088 28.3734 31.0756C28.3195 30.5783 28.2835 30.0811 28.2596 29.5778C28.2296 29.0266 28.2236 28.4694 28.2176 27.9183C28.2116 27.5708 28.2176 27.2293 28.2356 26.8818C28.2716 26.1988 28.3135 25.5158 28.3554 24.8328C28.3794 24.4614 28.4513 24.0839 28.4273 23.7125C28.3914 23.1913 28.4453 22.688 28.5531 22.1848C28.619 21.8852 28.637 21.5976 28.5771 21.2981C28.5831 21.2681 28.5831 21.2382 28.5891 21.2082C28.625 20.5013 28.5471 19.7943 28.655 19.0874C28.7269 18.632 28.3375 18.2486 27.9241 18.0988C27.5406 17.991 27.1572 17.8771 26.7738 17.7753C26.6839 17.7513 26.5821 17.7753 26.4922 17.7753C26.3604 17.7693 26.3184 17.8412 26.3005 17.961C26.2765 18.1408 26.2466 18.3265 26.1986 18.5062C25.9829 19.2911 25.7433 20.0759 25.5396 20.8667C25.4198 21.328 25.3479 21.8013 25.258 22.2686C25.2041 22.5922 25.1442 22.9157 25.0903 23.2392C25.0543 23.4549 25.0124 23.6706 24.9824 23.8922C24.8986 24.4734 24.8207 25.0605 24.7368 25.6416C24.7368 25.6776 24.7308 25.7135 24.7308 25.7495C24.7308 25.7854 24.7248 25.8214 24.7248 25.8573C24.7128 26.067 24.6949 26.2707 24.6889 26.4804C24.6709 26.9177 24.6649 27.3551 24.6469 27.7925C24.6409 27.8284 24.629 27.8643 24.629 27.8943C24.587 28.6312 24.5151 29.3681 24.5031 30.105C24.4912 31.1655 24.4971 32.2259 24.5391 33.2863C24.575 34.2988 24.7727 35.2873 25.1682 36.222C25.3659 36.6833 25.5576 37.1446 25.947 37.4861C25.9949 37.534 26.0429 37.576 26.0908 37.6239C26.2106 37.7078 26.3304 37.7856 26.4562 37.8695C26.7318 37.9774 27.0014 38.0912 27.277 38.199C27.325 38.217 27.3789 38.235 27.4268 38.2529C27.5826 38.2949 27.7324 38.3368 27.8881 38.3848C27.9121 38.3907 27.942 38.3967 27.966 38.4027C28.2775 38.4207 28.5891 38.4387 28.9006 38.4566C28.9246 38.4566 28.9486 38.4566 28.9725 38.4566C29.2721 38.4327 29.5716 38.4087 29.8652 38.3788C29.997 38.3728 30.1288 38.3608 30.2606 38.3548C30.3205 38.3548 30.3804 38.3488 30.4403 38.3488C31.2671 38.3009 32.0939 38.2529 32.9207 38.199C33.7175 38.1511 34.4005 37.7677 35.1074 37.4621C35.1733 37.4322 35.2272 37.3842 35.2812 37.3363C35.4549 37.1626 35.6287 36.9888 35.7964 36.8091C35.8743 36.7252 35.9462 36.6353 36.0001 36.5395C36.1199 36.2699 36.042 36.1021 35.7545 36.0243ZM28.2656 37.8755C28.2656 37.8815 28.2596 37.8875 28.2596 37.8875C28.2596 37.8875 28.2596 37.8815 28.2656 37.8755ZM25.3599 35.9164C25.3539 35.9164 25.3479 35.9104 25.3419 35.9104C25.3479 35.9104 25.3539 35.9164 25.3599 35.9164Z" fill="white"/>
<path d="M81.8853 18.3539C82.1697 18.1644 82.4676 18.0696 82.779 18.0696C83.2665 18.0696 83.7133 18.2321 84.0925 18.5706C84.4716 18.9091 84.6747 19.3153 84.6747 19.8028C84.6747 20.0195 84.6206 20.2496 84.5122 20.5069L80.2063 30.1615C80.0438 30.5407 79.8 30.8386 79.448 31.0417C79.0959 31.2448 78.7303 31.3396 78.3512 31.3396C77.9449 31.3396 77.5793 31.2448 77.2408 31.0417C76.9023 30.8386 76.645 30.5542 76.4961 30.1615L73.6931 23.6348L70.9985 30.1615C70.836 30.5407 70.5923 30.8386 70.2673 31.0417C69.9423 31.2448 69.5632 31.3396 69.1434 31.3396C68.7372 31.3396 68.3716 31.2448 68.0195 31.0417C67.6675 30.8386 67.4102 30.5542 67.2612 30.1615L62.9823 20.5069C62.8469 20.2632 62.7928 20.033 62.7928 19.8028C62.7928 19.3153 62.9959 18.9091 63.4156 18.5706C63.8219 18.2456 64.2958 18.0696 64.8239 18.0696C65.176 18.0696 65.4874 18.1644 65.7853 18.3539C66.0696 18.5435 66.2998 18.8279 66.4488 19.1935L69.2517 26.2482L72.1088 19.2476C72.2713 18.882 72.5015 18.5977 72.7994 18.3946C73.1109 18.205 73.4358 18.0967 73.815 18.0967C74.1806 18.0967 74.5191 18.1914 74.8441 18.381C75.1555 18.5706 75.3993 18.8685 75.5482 19.2476L78.4595 26.2482L81.2354 19.1935C81.3843 18.8279 81.6145 18.557 81.8853 18.3539Z" fill="#1F3951"/>
<path d="M98.703 23.4188V29.4851C98.703 30.0674 98.527 30.5142 98.1614 30.8527C97.8093 31.1912 97.3219 31.3537 96.699 31.3537C96.0897 31.3537 95.6022 31.1912 95.2501 30.8527C94.8981 30.5277 94.722 30.0674 94.722 29.4851V23.3782C94.722 22.6064 94.5595 22.0376 94.2346 21.6585C93.9096 21.2794 93.4086 21.0898 92.7315 21.0898C91.9055 21.0898 91.2556 21.3471 90.7546 21.8752C90.2536 22.4032 90.0098 23.1074 90.0098 23.974V29.4851C90.0098 30.0674 89.8338 30.5142 89.4817 30.8527C89.1297 31.1912 88.6558 31.3537 88.0329 31.3537C87.4235 31.3537 86.9361 31.1912 86.5705 30.8527C86.2184 30.5277 86.0288 30.0674 86.0288 29.4851V14.3735C86.0288 13.8319 86.2184 13.3986 86.5975 13.0601C86.9767 12.7216 87.4642 12.5591 88.0735 12.5591C88.6558 12.5591 89.1161 12.7216 89.4682 13.033C89.8203 13.3444 89.9963 13.7642 89.9963 14.2923V20.0065C90.4567 19.343 91.0389 18.842 91.7566 18.5035C92.4743 18.165 93.2867 17.9889 94.1939 17.9889C97.2 17.9889 98.703 19.8034 98.703 23.4188Z" fill="#1F3951"/>
<path d="M110.849 18.3539C111.133 18.1779 111.445 18.0967 111.783 18.0967C112.284 18.0967 112.731 18.2591 113.124 18.5841C113.503 18.9091 113.706 19.3018 113.706 19.7486C113.706 19.9924 113.639 20.2361 113.517 20.4798L106.462 34.955C106.286 35.3206 106.056 35.5914 105.758 35.781C105.46 35.9705 105.148 36.0518 104.81 36.0518C104.322 36.0518 103.889 35.8893 103.524 35.5779C103.158 35.2664 102.968 34.8737 102.968 34.4269C102.968 34.1425 103.023 33.8852 103.158 33.6415L104.891 30.0532L100.22 20.4798C100.111 20.2361 100.057 19.9924 100.057 19.7757C100.057 19.3018 100.26 18.8956 100.68 18.5706C101.086 18.2456 101.56 18.0696 102.088 18.0696C102.44 18.0696 102.765 18.1644 103.063 18.3404C103.361 18.53 103.591 18.8008 103.767 19.1664L107.017 26.2482L110.186 19.1664C110.335 18.8008 110.551 18.53 110.849 18.3539Z" fill="#1F3951"/>
<path d="M118.879 30.8798C118.5 30.5684 118.31 30.108 118.31 29.4851V14.4277C118.31 13.8184 118.5 13.358 118.879 13.033C119.258 12.7216 119.732 12.5591 120.314 12.5591C120.869 12.5591 121.343 12.7216 121.722 13.033C122.102 13.3444 122.291 13.8184 122.291 14.4277V29.4851C122.291 30.0944 122.102 30.5548 121.722 30.8798C121.343 31.1912 120.883 31.3537 120.314 31.3537C119.732 31.3402 119.258 31.1912 118.879 30.8798Z" fill="#1F3951"/>
<path d="M135.453 27.7794C135.669 28.0638 135.778 28.4158 135.778 28.8491C135.778 29.147 135.697 29.4178 135.52 29.6751C135.344 29.9324 135.101 30.149 134.789 30.3251C134.193 30.6365 133.503 30.8938 132.718 31.0969C131.932 31.3 131.201 31.3948 130.537 31.3948C129.143 31.3948 127.911 31.124 126.881 30.5823C125.839 30.0407 125.04 29.2689 124.485 28.2669C123.93 27.2648 123.645 26.0733 123.645 24.7192C123.645 23.4057 123.916 22.2412 124.458 21.2256C124.999 20.2101 125.758 19.4247 126.719 18.856C127.68 18.2873 128.777 18.0029 129.996 18.0029C131.16 18.0029 132.189 18.2602 133.083 18.7748C133.963 19.2893 134.654 20.0205 135.141 20.9819C135.629 21.9298 135.873 23.0536 135.873 24.3265C135.873 24.7056 135.778 25.0035 135.602 25.2066C135.412 25.4098 135.155 25.5045 134.83 25.5045H127.477C127.599 26.5336 127.911 27.2784 128.425 27.7523C128.926 28.2127 129.657 28.4429 130.605 28.4429C131.12 28.4429 131.567 28.3887 131.973 28.2533C132.379 28.1179 132.826 27.969 133.313 27.7523C133.557 27.644 133.801 27.5492 134.017 27.4815C134.234 27.4138 134.451 27.3596 134.627 27.3596C134.952 27.3596 135.236 27.495 135.453 27.7794ZM128.276 21.4423C127.816 21.9298 127.545 22.6203 127.464 23.5276H132.528C132.474 22.5933 132.244 21.9027 131.837 21.4288C131.431 20.9548 130.849 20.7246 130.091 20.7246C129.332 20.7246 128.737 20.9684 128.276 21.4423Z" fill="#1F3951"/>
<path d="M147.761 19.3697C148.669 20.2905 149.129 21.6852 149.129 23.5809V29.5118C149.129 30.094 148.967 30.5409 148.628 30.8658C148.289 31.1908 147.829 31.3533 147.233 31.3533C146.678 31.3533 146.218 31.1773 145.879 30.8388C145.541 30.5002 145.365 30.0534 145.365 29.5118V29.3222C145.107 29.9721 144.661 30.4732 144.051 30.8388C143.442 31.2044 142.724 31.3939 141.898 31.3939C141.018 31.3939 140.233 31.2179 139.529 30.8658C138.824 30.5138 138.256 30.0263 137.849 29.3899C137.443 28.767 137.227 28.0629 137.227 27.2911C137.227 26.3432 137.47 25.5985 137.944 25.0568C138.432 24.5152 139.204 24.1225 140.26 23.8788C141.329 23.635 142.792 23.5132 144.647 23.5132H145.324V23.0393C145.324 22.308 145.162 21.7664 144.837 21.4414C144.512 21.1165 143.97 20.9404 143.225 20.9404C142.48 20.9404 141.384 21.1977 139.975 21.7258C139.569 21.9154 139.231 22.0101 138.946 22.0101C138.567 22.0101 138.256 21.8747 138.026 21.6039C137.795 21.3331 137.687 20.981 137.687 20.5477C137.687 20.1957 137.768 19.9113 137.917 19.6811C138.08 19.4509 138.323 19.2478 138.675 19.0583C139.285 18.7197 140.03 18.4625 140.923 18.2729C141.803 18.0833 142.67 17.9885 143.537 17.9885C145.459 17.9885 146.854 18.4489 147.761 19.3697ZM144.647 27.9004C145.121 27.3858 145.351 26.7088 145.351 25.8964V25.4495H144.904C143.482 25.4495 142.494 25.5578 141.925 25.788C141.357 26.0182 141.072 26.4244 141.072 27.0202C141.072 27.5077 141.235 27.9139 141.56 28.2118C141.885 28.5233 142.291 28.6722 142.778 28.6722C143.55 28.6722 144.173 28.4149 144.647 27.9004Z" fill="#1F3951"/>
<path d="M161.302 18.3406C161.587 18.1511 161.898 18.0698 162.237 18.0698C162.724 18.0698 163.157 18.2323 163.55 18.5573C163.929 18.8823 164.132 19.2749 164.132 19.7218C164.132 19.9791 164.065 20.2364 163.943 20.4801L159.217 30.1618C159.041 30.5409 158.784 30.8388 158.432 31.0419C158.079 31.245 157.7 31.3398 157.308 31.3398C156.901 31.3398 156.522 31.245 156.184 31.0419C155.832 30.8388 155.561 30.5545 155.371 30.1618L150.646 20.4801C150.537 20.2364 150.483 19.9926 150.483 19.776C150.483 19.302 150.686 18.8958 151.106 18.5708C151.512 18.2458 151.973 18.0698 152.487 18.0698C152.853 18.0698 153.191 18.1646 153.489 18.3406C153.787 18.5302 154.017 18.801 154.193 19.1666L157.416 26.2214L160.612 19.1666C160.774 18.801 161.004 18.5302 161.302 18.3406Z" fill="#1F3951"/>
<path d="M176.739 27.7794C176.955 28.0638 177.064 28.4158 177.064 28.8491C177.064 29.147 176.982 29.4178 176.806 29.6751C176.63 29.9324 176.387 30.149 176.075 30.3251C175.479 30.6365 174.789 30.8938 174.003 31.0969C173.218 31.3 172.487 31.3948 171.823 31.3948C170.429 31.3948 169.196 31.124 168.167 30.5823C167.125 30.0407 166.326 29.2689 165.771 28.2669C165.215 27.2648 164.931 26.0733 164.931 24.7192C164.931 23.4057 165.202 22.2412 165.744 21.2256C166.285 20.2101 167.043 19.4247 168.005 18.856C168.966 18.2873 170.063 18.0029 171.282 18.0029C172.446 18.0029 173.475 18.2602 174.369 18.7748C175.249 19.2893 175.94 20.0205 176.427 20.9819C176.915 21.9298 177.158 23.0536 177.158 24.3265C177.158 24.7056 177.064 25.0035 176.888 25.2066C176.698 25.4098 176.441 25.5045 176.116 25.5045H168.763C168.885 26.5336 169.196 27.2784 169.711 27.7523C170.212 28.2127 170.943 28.4429 171.891 28.4429C172.406 28.4429 172.852 28.3887 173.259 28.2533C173.665 28.1179 174.112 27.969 174.599 27.7523C174.843 27.644 175.087 27.5492 175.303 27.4815C175.52 27.4138 175.737 27.3596 175.913 27.3596C176.238 27.3596 176.522 27.495 176.739 27.7794ZM169.576 21.4423C169.115 21.9298 168.844 22.6203 168.763 23.5276H173.827C173.773 22.5933 173.543 21.9027 173.137 21.4288C172.731 20.9548 172.148 20.7246 171.39 20.7246C170.632 20.7246 170.022 20.9684 169.576 21.4423Z" fill="#1F3951"/>
<path d="M193.421 28.8485C193.665 29.0787 193.787 29.4037 193.787 29.8506C193.787 30.3516 193.583 30.7443 193.177 31.0015C192.771 31.2588 192.202 31.3671 191.444 31.313L190.713 31.2588C187.653 31.0151 186.123 29.4173 186.123 26.4518V21.2522H185.066C184.484 21.2522 184.051 21.1303 183.753 20.873C183.455 20.6157 183.306 20.2501 183.306 19.7897C183.306 19.3023 183.455 18.9231 183.753 18.6794C184.051 18.4221 184.484 18.3003 185.066 18.3003H186.123V16.2556C186.123 15.6733 186.299 15.2265 186.664 14.888C187.016 14.563 187.504 14.387 188.127 14.387C188.749 14.387 189.223 14.5494 189.575 14.888C189.927 15.2265 190.103 15.6733 190.103 16.2556V18.3003H191.945C193.137 18.3003 193.732 18.8013 193.732 19.7897C193.732 20.2637 193.583 20.6293 193.286 20.873C192.988 21.1303 192.541 21.2522 191.945 21.2522H190.103V26.7362C190.103 27.2643 190.225 27.657 190.469 27.9278C190.713 28.1986 191.078 28.3475 191.539 28.3882L192.27 28.4423C192.785 28.4965 193.177 28.6319 193.421 28.8485Z" fill="#1F3951"/>
<path d="M198.363 30.5686C197.334 30.0134 196.535 29.2416 195.98 28.2395C195.425 27.2375 195.141 26.0459 195.141 24.6783C195.141 23.3107 195.425 22.1326 195.98 21.1306C196.535 20.1286 197.334 19.3568 198.363 18.8151C199.392 18.2735 200.598 18.0027 201.952 18.0027C203.319 18.0027 204.511 18.2735 205.54 18.8151C206.569 19.3568 207.368 20.1286 207.923 21.1306C208.478 22.1326 208.763 23.3242 208.763 24.6783C208.763 26.0459 208.478 27.224 207.923 28.2395C207.368 29.2416 206.569 30.0269 205.54 30.5686C204.511 31.1237 203.306 31.3945 201.952 31.3945C200.598 31.3945 199.392 31.1237 198.363 30.5686ZM204.836 24.6783C204.836 23.4326 204.592 22.5118 204.091 21.9024C203.59 21.2931 202.886 20.9817 201.952 20.9817C200.029 20.9817 199.068 22.2139 199.068 24.6783C199.068 27.1427 200.029 28.3749 201.952 28.3749C203.874 28.3885 204.836 27.1427 204.836 24.6783Z" fill="#1F3951"/>
<path d="M229.182 18.3539C229.467 18.1644 229.765 18.0696 230.076 18.0696C230.563 18.0696 231.01 18.2321 231.389 18.5706C231.769 18.9091 231.972 19.3153 231.972 19.8028C231.972 20.0195 231.918 20.2496 231.809 20.5069L227.503 30.1615C227.341 30.5407 227.097 30.8386 226.745 31.0417C226.393 31.2448 226.027 31.3396 225.648 31.3396C225.242 31.3396 224.876 31.2448 224.538 31.0417C224.199 30.8386 223.942 30.5542 223.793 30.1615L220.99 23.6348L218.295 30.1615C218.133 30.5407 217.889 30.8386 217.564 31.0417C217.239 31.2448 216.86 31.3396 216.44 31.3396C216.034 31.3396 215.669 31.2448 215.316 31.0417C214.964 30.8386 214.707 30.5542 214.558 30.1615L210.279 20.5069C210.171 20.2632 210.117 20.0195 210.117 19.8028C210.117 19.3153 210.32 18.9091 210.74 18.5706C211.146 18.2456 211.62 18.0696 212.148 18.0696C212.5 18.0696 212.811 18.1644 213.109 18.3539C213.394 18.5435 213.624 18.8279 213.773 19.1935L216.576 26.2482L219.433 19.2476C219.595 18.882 219.826 18.5977 220.123 18.3946C220.435 18.1914 220.76 18.0967 221.139 18.0967C221.505 18.0967 221.843 18.1914 222.168 18.381C222.48 18.5706 222.723 18.8685 222.872 19.2476L225.784 26.2482L228.559 19.1935C228.681 18.8279 228.898 18.557 229.182 18.3539Z" fill="#1F3951"/>
<path d="M244.876 19.3429C245.634 20.2365 246 21.6042 246 23.4186V29.4849C246 30.0672 245.824 30.514 245.458 30.8525C245.106 31.1911 244.619 31.3536 243.996 31.3536C243.387 31.3536 242.899 31.1911 242.547 30.8525C242.195 30.5276 242.019 30.0672 242.019 29.4849V23.6082C242.019 22.7281 241.856 22.0916 241.531 21.699C241.207 21.2927 240.705 21.0896 240.028 21.0896C239.202 21.0896 238.553 21.3469 238.052 21.875C237.55 22.4031 237.307 23.1072 237.307 23.9738V29.4849C237.307 30.0672 237.131 30.514 236.779 30.8525C236.427 31.1911 235.953 31.3536 235.33 31.3536C234.72 31.3536 234.233 31.1911 233.867 30.8525C233.515 30.5276 233.326 30.0672 233.326 29.4849V19.8574C233.326 19.3158 233.515 18.8825 233.894 18.5439C234.274 18.2054 234.761 18.0429 235.343 18.0429C235.885 18.0429 236.332 18.2054 236.67 18.5304C237.009 18.8554 237.185 19.2751 237.185 19.7762V20.1418C237.645 19.4376 238.228 18.9095 238.959 18.5439C239.69 18.1783 240.502 17.9888 241.41 17.9888C242.967 17.9888 244.118 18.4492 244.876 19.3429Z" fill="#1F3951"/>
</svg>